<svg height="511pt" viewBox="0 1 511 511.99901" width="511pt" xmlns="http://www.w3.org/2000/svg"><path d="m305.535156 354.976562 141.175782 141.179688c7.8125 7.808594 20.476562 7.808594 28.285156 0l21.652344-21.652344c7.808593-7.808594 7.808593-20.472656 0-28.285156l-141.175782-141.175781zm0 0" fill="#ffb954"/><path d="m391.476562 341.042969-49.9375 49.9375-36-36.003907 49.9375-49.933593zm0 0" fill="#d8d8e4"/><path d="m386.507812 198.003906c0 103.832032-84.171874 188.003906-188.003906 188.003906-103.832031 0-188.003906-84.171874-188.003906-188.003906 0-103.832031 84.171875-188.003906 188.003906-188.003906 103.832032 0 188.003906 84.171875 188.003906 188.003906zm0 0" fill="#72d8ff"/><path d="m330.507812 198.003906c0 72.902344-59.101562 132.003906-132.003906 132.003906s-132.003906-59.101562-132.003906-132.003906 59.101562-132.003906 132.003906-132.003906 132.003906 59.101562 132.003906 132.003906zm0 0" fill="#fff"/><path d="m111.582031 283.613281c-3.875-3.933593-10.210937-3.980469-14.144531-.101562-3.933594 3.875-3.976562 10.207031-.101562 14.140625l.761718.769531c1.953125 1.949219 4.511719 2.921875 7.066406 2.921875 2.5625 0 5.125-.980469 7.078126-2.9375 3.902343-3.910156 3.894531-10.242188-.015626-14.144531zm0 0"/><path d="m298.914062 97.59375c-55.367187-55.367188-145.453124-55.367188-200.820312 0-43.640625 43.640625-54.160156 109.882812-26.175781 164.839844 2.507812 4.921875 8.527343 6.878906 13.453125 4.375 4.921875-2.507813 6.878906-8.527344 4.371094-13.449219-24.042969-47.214844-15-104.128906 22.496093-141.625 47.566407-47.566406 124.96875-47.566406 172.535157 0 47.570312 47.570313 47.570312 124.96875 0 172.539063-36.089844 36.089843-91.425782 45.898437-137.691407 24.40625-5.007812-2.328126-10.957031-.152344-13.28125 4.855468-2.328125 5.007813-.152343 10.957032 4.855469 13.28125 19.03125 8.839844 39.371094 13.132813 59.585938 13.132813 36.980468-.003907 73.515624-14.375 100.675781-41.535157 55.363281-55.367187 55.363281-145.453124-.003907-200.820312zm0 0"/><path d="m503.71875 439.148438-136.929688-136.929688c18.824219-30.292969 29.71875-66.003906 29.71875-104.214844 0-109.179687-88.824218-198.003906-198.003906-198.003906-109.179687 0-198.003906 88.824219-198.003906 198.003906 0 109.179688 88.824219 198.003906 198.003906 198.003906 38.207032 0 73.914063-10.890624 104.203125-29.710937l136.933594 136.929687c5.847656 5.847657 13.53125 8.773438 21.210937 8.773438 7.683594 0 15.367188-2.925781 21.214844-8.773438l21.652344-21.652343c11.699219-11.695313 11.699219-30.726563 0-42.425781zm-483.21875-241.144532c0-98.152344 79.851562-178.003906 178.003906-178.003906s178.003906 79.851562 178.003906 178.003906-79.851562 178.003906-178.003906 178.003906-178.003906-79.851562-178.003906-178.003906zm334.695312 120.902344 22.132813 22.136719-35.792969 35.792969-22.136718-22.136719c13.398437-10.359375 25.433593-22.394531 35.796874-35.792969zm134.382813 148.527344-21.652344 21.648437c-3.898437 3.902344-10.242187 3.902344-14.140625 0l-98.105468-98.101562 35.792968-35.796875 98.105469 98.105468c3.898437 3.902344 3.898437 10.246094 0 14.144532zm0 0"/><path d="m268.503906 198.003906c0 5.523438 4.480469 10 10.003906 10 5.519532 0 10-4.476562 10-10 0-34.359375-20.015624-66.203125-50.984374-81.125-4.976563-2.398437-10.953126-.304687-13.351563 4.667969-2.394531 4.976563-.304687 10.953125 4.671875 13.351563 24.09375 11.605468 39.660156 36.375 39.660156 63.105468zm0 0"/><path d="m198.660156 128.003906c5.523438 0 10-4.476562 10-10 0-5.523437-4.476562-10-10-10h-.15625c-5.523437 0-10 4.476563-10 10 0 5.523438 4.476563 10 10 10zm0 0"/></svg>